<svg aria-hidden="true" style="position: absolute; width: 0; height: 0; overflow: hidden;" version="1.1" xmlns="http://www.w3.org/2000/svg" xmlns:xlink="http://www.w3.org/1999/xlink">
<defs>
<symbol id="icon-actionsagainsthunger" viewBox="0 0 51 32">
<path d="M0 0h50.939v32h-50.939v-32z"></path>
</symbol>
<symbol id="icon-align-left" viewBox="0 0 32 32">
<path stroke-linejoin="round" stroke-linecap="round" stroke-miterlimit="4" stroke-width="2.2857" d="M22.667 13.333h-18.667"></path>
<path stroke-linejoin="round" stroke-linecap="round" stroke-miterlimit="4" stroke-width="2.2857" d="M28 8h-24"></path>
<path stroke-linejoin="round" stroke-linecap="round" stroke-miterlimit="4" stroke-width="2.2857" d="M28 18.667h-24"></path>
<path stroke-linejoin="round" stroke-linecap="round" stroke-miterlimit="4" stroke-width="2.2857" d="M22.667 24h-18.667"></path>
</symbol>
<symbol id="icon-arrow" viewBox="0 0 43 32">
<path stroke-linejoin="round" stroke-linecap="round" stroke-miterlimit="4" stroke-width="5.3333" d="M3.555 16h35.556M39.111 16l-13.333-13.333M39.111 16l-13.333 13.333"></path>
</symbol>
<symbol id="icon-intermedcorps" viewBox="0 0 87 32">
<path d="M5.818 5.818h75.055v20.364h-75.055v-20.364z"></path>
</symbol>
<symbol id="icon-letter" viewBox="0 0 38 32">
<path stroke-linejoin="round" stroke-linecap="round" stroke-miterlimit="4" stroke-width="2.9091" d="M35.030 26.182l-11.273-10.182M14.060 16l-11.273 10.182M1.939 7.515l13.856 9.699c1.122 0.785 1.683 1.178 2.293 1.33 0.539 0.134 1.103 0.134 1.642 0 0.61-0.152 1.171-0.545 2.293-1.33l13.856-9.699M10.085 29.576h17.648c2.851 0 4.277 0 5.366-0.555 0.958-0.488 1.737-1.267 2.225-2.225 0.555-1.089 0.555-2.515 0.555-5.366v-10.861c0-2.851 0-4.277-0.555-5.366-0.488-0.958-1.267-1.737-2.225-2.225-1.089-0.555-2.515-0.555-5.366-0.555h-17.648c-2.851 0-4.277 0-5.366 0.555-0.958 0.488-1.737 1.267-2.225 2.225-0.555 1.089-0.555 2.515-0.555 5.366v10.861c0 2.851 0 4.277 0.555 5.366 0.488 0.958 1.267 1.737 2.225 2.225 1.089 0.555 2.515 0.555 5.366 0.555z"></path>
</symbol>
<symbol id="icon-lock" viewBox="0 0 32 32">
<path stroke-linejoin="round" stroke-linecap="round" stroke-miterlimit="4" stroke-width="2.6667" d="M23.778 14.444v-4.667c0-4.296-3.482-7.778-7.778-7.778s-7.778 3.482-7.778 7.778v4.667M9.467 30h13.067c2.614 0 3.92 0 4.919-0.509 0.878-0.447 1.592-1.161 2.039-2.039 0.509-0.998 0.509-2.305 0.509-4.919v-0.622c0-2.614 0-3.92-0.509-4.919-0.447-0.878-1.161-1.592-2.039-2.039-0.998-0.509-2.305-0.509-4.919-0.509h-13.067c-2.614 0-3.92 0-4.919 0.509-0.878 0.447-1.592 1.161-2.039 2.039-0.509 0.998-0.509 2.305-0.509 4.919v0.622c0 2.614 0 3.92 0.509 4.919 0.447 0.878 1.161 1.592 2.039 2.039 0.998 0.509 2.305 0.509 4.919 0.509z"></path>
</symbol>
<symbol id="icon-logobookshelf" viewBox="0 0 32 32">
<path d="M0 0l16.343 16.171 15.657 15.829v-32h-32z"></path>
<path d="M4.457 4.229l11.943 11.829 11.257 11.486h-23.2v-23.314z"></path>
<path d="M27.733 27.618l-11.943-11.829-11.257-11.486h23.2v23.314z"></path>
<path d="M9.257 9.029l13.6 13.6h-13.6v-13.6z"></path>
<path d="M9.257 9.029l13.6 13.6v-13.6h-13.6z"></path>
</symbol>
<symbol id="icon-medsansfrontiereres" viewBox="0 0 87 32">
<path d="M4.655 2.327h77.382v27.345h-77.382v-27.345z"></path>
</symbol>
<symbol id="icon-piramiddown" viewBox="0 0 60 32">
<path d="M3.167 3h53.667l-24.123 27.27c-0.719 0.812-1.694 1.269-2.71 1.269s-1.991-0.456-2.71-1.269l-24.123-27.27z"></path>
</symbol>
<symbol id="icon-plug" viewBox="0 0 35 32">
<path d="M34.352 7.713c-0.752-0.394-1.536-0.722-2.352-1.001v19.742c-1.824-0.673-3.696-1.017-5.6-1.017-3.040 0-6.048 0.886-8.8 2.593v-19.856c-2.592-1.526-5.584-2.429-8.8-2.429-2.864 0-5.568 0.722-7.952 1.969-0.528 0.263-0.848 0.837-0.848 1.444v19.824c0 0.952 0.752 1.625 1.6 1.625 0.256 0 0.512-0.066 0.768-0.197 1.936-1.034 4.112-1.69 6.432-1.69 3.312 0 6.368 1.346 8.8 3.282 2.432-1.936 5.488-3.282 8.8-3.282 2.32 0 4.496 0.656 6.432 1.707 0.256 0.131 0.512 0.197 0.768 0.197 0.832 0 1.6-0.673 1.6-1.625v-19.84c0-0.607-0.32-1.182-0.848-1.444zM14.4 26.453c-1.824-0.673-3.696-1.017-5.6-1.017s-3.776 0.345-5.6 1.017v-16.263c1.776-0.771 3.648-1.165 5.6-1.165 1.92 0 3.824 0.41 5.6 1.182v16.246zM28.8 0l-8 8.205v15.59l8-7.385v-16.41z"></path>
</symbol>
<symbol id="icon-projecthope" viewBox="0 0 64 32">
<path d="M0 0h64v32h-64v-32z"></path>
</symbol>
<symbol id="icon-razom" viewBox="0 0 96 32">
<path d="M0 0h96v32h-96v-32z"></path>
</symbol>
<symbol id="icon-savethechildren" viewBox="0 0 145 32">
<path d="M0 0h144.485v32h-144.485v-32z"></path>
</symbol>
<symbol id="icon-sergiyprutula" viewBox="0 0 96 32">
<path d="M0 0h96v32h-96v-32z"></path>
</symbol>
<symbol id="icon-trash" viewBox="0 0 32 32">
<path stroke-linejoin="round" stroke-linecap="round" stroke-miterlimit="4" stroke-width="3.2" d="M11.6 2.8h8.8M2.8 7.2h26.4M26.267 7.2l-1.029 15.428c-0.154 2.315-0.232 3.472-0.731 4.35-0.44 0.772-1.104 1.394-1.904 1.781-0.909 0.44-2.069 0.44-4.389 0.44h-4.427c-2.32 0-3.48 0-4.389-0.44-0.8-0.388-1.464-1.009-1.904-1.781-0.5-0.878-0.577-2.035-0.731-4.35l-1.029-15.428M13.067 13.8v7.333M18.933 13.8v7.333"></path>
</symbol>
<symbol id="icon-united24" viewBox="0 0 87 32">
<path d="M0 11.636h86.691v8.727h-86.691v-8.727z"></path>
</symbol>
<symbol id="icon-up" viewBox="0 0 55 32">
<path d="M1.091 25.309l24.436-24.509c0.291-0.291 0.606-0.496 0.945-0.617 0.339-0.122 0.703-0.183 1.091-0.183s0.752 0.061 1.091 0.183c0.339 0.12 0.655 0.326 0.946 0.617l24.509 24.509c0.679 0.679 1.018 1.527 1.018 2.545s-0.364 1.891-1.091 2.618c-0.727 0.727-1.576 1.091-2.545 1.091s-1.818-0.364-2.545-1.091l-21.382-21.382-21.382 21.382c-0.679 0.679-1.515 1.018-2.508 1.018-0.995 0-1.856-0.364-2.583-1.091s-1.091-1.576-1.091-2.545c0-0.97 0.364-1.818 1.091-2.545z"></path>
</symbol>
<symbol id="icon-user" viewBox="0 0 23 32">
<path d="M0.296 30.963c0-2.986 1.186-5.85 3.298-7.962s4.975-3.298 7.962-3.298 5.85 1.186 7.961 3.298c2.112 2.112 3.298 4.975 3.298 7.962h-22.518zM11.556 18.296c-4.666 0-8.444-3.779-8.444-8.444s3.779-8.444 8.444-8.444c4.666 0 8.444 3.779 8.444 8.444s-3.779 8.444-8.444 8.444z"></path>
</symbol>
<symbol id="icon-worldvision" viewBox="0 0 66 32">
<path d="M0 0h66.462v32h-66.462v-32z"></path>
</symbol>
<symbol id="icon-x" viewBox="0 0 32 32">
<path stroke-linejoin="round" stroke-linecap="round" stroke-miterlimit="4" stroke-width="5.3333" d="M28.444 3.556l-24.889 24.889M3.556 3.556l24.889 24.889"></path>
</symbol>
</defs>
</svg>
